# xmcd
#
# Track frame offsets: 
#        150
#        25295
#        47850
#        81777
#        101727
#        127875
#        148492
#        178847
#        192537
#        232315
#        257422
#        285450
#        317207
#
# Disc length: 4581 seconds
#
# Revision: 4
# Processed by: cddbd v1.5.2PL0 Copyright (c) Steve Scherf et al.
# Submitted via: ExactAudioCopy v1.0b3
#
DISCID=c611e30d
DTITLE=GARY MOORE - BLUES ALIVE (JAPANESE LTD. EDITION 2-CD SET)
DYEAR=1993
DGENRE=Blues Rock
TTITLE0=Cold Day In Hell
TTITLE1=Walking By Myself
TTITLE2=Story Of The Blues
TTITLE3=Oh Pretty Woman
TTITLE4=Separate Ways
TTITLE5=Too Tired
TTITLE6=Still Got The Blues (For You)
TTITLE7=Since I Met You Baby
TTITLE8=The Sky Is Crying
TTITLE9=Further On Up The Road
TTITLE10=King Of The Blues
TTITLE11=Parisienne Walkways
TTITLE12=Jumpin' At Shadows
EXTD=
EXTT0=
EXTT1=
EXTT2=
EXTT3=
EXTT4=
EXTT5=
EXTT6=
EXTT7=
EXTT8=
EXTT9=
EXTT10=
EXTT11=
EXTT12=
PLAYORDER=
